<?xml version="1.0" standalone="no"?>
<!DOCTYPE svg PUBLIC "-//W3C//DTD SVG 20010904//EN"
 "http://www.w3.org/TR/2001/REC-SVG-20010904/DTD/svg10.dtd">
<svg version="1.0" xmlns="http://www.w3.org/2000/svg"
 width="960.000000pt" height="960.000000pt" viewBox="0 0 960.000000 960.000000"
 preserveAspectRatio="xMidYMid meet">
<metadata>
Created by potrace 1.11, written by Peter Selinger 2001-2013
</metadata>
<g transform="translate(0.000000,960.000000) scale(0.100000,-0.100000)"
fill="#000000" stroke="none">
<path d="M4983 8307 c-3 -5 -23 -7 -44 -4 -22 3 -41 2 -44 -2 -2 -4 -21 -7
-42 -6 -21 1 -43 -2 -49 -7 -6 -4 -35 -12 -63 -18 -29 -5 -91 -28 -138 -50
-94 -44 -104 -44 -185 -3 -45 23 -185 63 -220 63 -10 0 -18 -4 -18 -9 0 -4 30
-13 67 -19 113 -19 91 -29 -52 -24 -112 4 -135 2 -133 -9 2 -11 -11 -14 -52
-14 -88 -1 -171 -15 -176 -30 -3 -8 -12 -11 -20 -8 -20 7 -133 -52 -192 -100
-26 -22 -67 -49 -92 -62 -25 -13 -60 -35 -79 -49 -19 -14 -40 -26 -47 -26 -20
0 -165 -112 -220 -171 -29 -30 -74 -67 -100 -84 -66 -39 -196 -148 -270 -226
-61 -64 -68 -77 -182 -319 -54 -114 -68 -182 -46 -220 14 -22 15 -33 6 -60 -7
-17 -15 -61 -18 -96 -5 -48 -11 -65 -24 -69 -17 -5 -30 -52 -34 -120 -1 -16
-4 -34 -7 -40 -9 -15 -20 -114 -24 -219 -2 -51 -9 -122 -15 -158 -6 -37 -8
-125 -5 -200 4 -82 1 -167 -7 -221 -11 -79 -10 -90 4 -98 13 -7 15 -27 13
-116 -1 -60 3 -114 8 -121 5 -7 7 -30 4 -52 -4 -30 -1 -42 10 -49 13 -7 15
-20 10 -67 -5 -46 -3 -62 10 -76 11 -13 16 -37 15 -87 0 -63 3 -72 28 -98 31
-32 50 -83 30 -83 -14 0 68 -120 84 -121 6 -1 16 -2 22 -3 7 0 23 -13 38 -28
14 -16 29 -28 35 -28 13 0 26 21 27 45 0 11 1 39 2 63 2 54 16 47 38 -21 56
-173 159 -306 265 -345 199 -73 798 -69 997 6 62 24 180 109 216 157 51 66
116 213 175 396 65 197 79 221 142 239 42 12 181 13 233 0 21 -5 48 -17 58
-28 18 -17 87 -189 110 -272 17 -62 126 -277 160 -315 40 -46 118 -105 183
-138 155 -78 723 -84 985 -11 71 20 130 56 173 103 47 52 108 182 154 328 21
68 43 121 48 119 6 -2 9 -11 7 -20 -2 -10 2 -41 8 -69 9 -43 8 -52 -5 -59 -23
-13 -18 -30 8 -26 13 2 29 16 39 37 9 19 22 38 29 42 7 4 16 36 21 71 4 34 13
65 18 66 6 2 10 12 10 23 0 10 5 19 10 19 6 0 10 9 10 19 0 11 5 23 11 27 7 4
9 24 6 50 -3 30 0 47 8 52 16 9 34 93 27 127 -4 24 1 42 29 97 4 9 4 31 -1 50
-16 52 -13 118 6 125 10 4 13 14 10 32 -11 53 -15 140 -7 145 5 3 8 75 6 160
-2 146 -3 158 -28 206 -32 62 -32 63 -7 55 11 -3 20 -5 20 -3 0 2 -14 39 -30
83 -34 92 -35 96 -15 69 14 -19 14 -19 15 3 0 12 -12 50 -27 84 -19 44 -24 64
-15 67 7 2 9 8 6 14 -4 6 -7 76 -9 157 -2 144 -3 148 -43 257 -67 184 -116
273 -200 369 -75 85 -178 192 -255 264 -22 20 -54 59 -72 87 -32 48 -189 204
-206 204 -4 0 -27 13 -51 28 -79 53 -152 81 -233 93 -99 13 -137 29 -190 78
-54 50 -76 61 -155 80 -51 13 -64 20 -62 33 4 26 -75 80 -113 77 -16 -2 -40 3
-52 9 -27 15 -129 16 -138 2 -4 -6 -11 -7 -17 -4 -17 11 -118 11 -125 1z m300
-79 c10 -5 17 -12 14 -14 -6 -6 -106 14 -125 26 -22 14 84 2 111 -12z m-1164
-612 c-13 -51 -72 -149 -109 -181 -27 -23 -24 -17 36 71 23 36 50 87 59 115
21 62 30 58 14 -5z m-874 -261 c-25 -48 -45 -83 -45 -76 0 13 82 172 87 168 1
-2 -17 -43 -42 -92z m70 -45 c-9 -16 -18 -30 -21 -30 -2 0 2 14 11 30 9 17 18
30 21 30 2 0 -2 -13 -11 -30z m55 -15 c0 -8 -4 -15 -10 -15 -5 0 -7 7 -4 15 4
8 8 15 10 15 2 0 4 -7 4 -15z m1969 -112 c5 -38 5 -72 1 -77 -9 -9 -16 23 -25
119 -8 84 13 48 24 -42z m-55 36 c9 -46 7 -102 -4 -119 -7 -11 -10 -1 -10 36
0 28 -3 66 -6 83 -4 18 -2 31 4 31 5 0 12 -14 16 -31z m-406 -4 c7 -14 12 -29
12 -33 -1 -10 -40 38 -40 49 0 18 17 8 28 -16z m305 -22 c6 -34 3 -53 -7 -42
-9 10 -16 79 -8 79 5 0 12 -17 15 -37z m-1239 -111 c4 -7 3 -12 -3 -12 -26 0
-41 83 -24 127 5 12 10 -2 14 -43 3 -33 9 -66 13 -72z m1715 70 c0 -30 -2 -33
-9 -17 -12 28 -12 67 0 60 6 -3 10 -23 9 -43z m341 -17 c0 -30 -5 -57 -11 -60
-15 -10 -15 -7 -11 63 5 75 22 73 22 -3z m-106 -25 c-9 -42 -26 -80 -35 -80
-13 0 -11 12 6 53 8 20 15 53 16 74 1 38 1 38 10 8 4 -16 6 -41 3 -55z m390
13 c18 -52 21 -139 6 -148 -6 -4 -10 8 -10 28 0 34 -15 124 -26 161 -13 41 15
3 30 -41z m-1797 10 c-3 -10 -5 -4 -5 12 0 17 2 24 5 18 2 -7 2 -21 0 -30z
m1254 -14 l-9 -34 -1 31 c-1 17 2 34 6 37 12 13 14 -1 4 -34z m-1964 -41 c-3
-7 -5 -2 -5 12 0 14 2 19 5 13 2 -7 2 -19 0 -25z m3002 -138 c0 -24 0 -24 -14
-6 -9 12 -15 39 -14 65 l1 46 13 -40 c8 -22 14 -51 14 -65z m-34 -174 c8 -27
13 -51 11 -54 -3 -2 -10 16 -16 39 -7 24 -15 49 -19 54 -5 6 -11 19 -14 30 -7
20 -7 20 8 0 9 -11 22 -42 30 -69z m-2415 -91 c6 -8 10 -19 8 -24 -1 -5 -11 2
-21 15 -19 26 -8 34 13 9z m65 -327 c-29 -137 -156 -300 -244 -314 -39 -6 -63
-23 -60 -40 4 -23 -3 -34 -21 -34 -16 0 -20 7 -20 30 0 23 5 30 19 30 11 0 26
8 33 18 7 11 31 30 53 44 64 40 172 163 208 234 17 35 33 64 35 64 2 0 0 -15
-3 -32z m272 -64 c-25 -23 -72 -59 -104 -80 -32 -21 -61 -42 -65 -48 -4 -6
-10 -7 -14 -3 -4 4 -5 9 -3 10 2 2 38 29 79 59 41 31 91 72 110 92 21 23 36
32 39 24 2 -6 -17 -31 -42 -54z m-1517 -9 c0 -10 -16 -4 -40 16 l-25 20 33
-16 c17 -8 32 -18 32 -20z m1559 -76 c-52 -36 -87 -53 -116 -57 -24 -2 -43 0
-43 5 0 11 59 40 116 58 23 7 52 20 65 29 13 9 30 16 38 16 8 0 -19 -23 -60
-51z m682 -21 c0 -13 4 -49 8 -80 l7 -58 -30 3 c-23 1 -33 -4 -42 -22 -7 -13
-18 -27 -26 -32 -10 -7 -9 -11 6 -22 15 -11 17 -17 7 -35 -16 -29 -14 -32 17
-32 17 0 32 8 40 21 10 15 20 19 37 15 14 -4 27 0 35 9 7 8 24 15 39 15 15 0
33 6 39 12 9 9 17 10 30 2 12 -8 37 -8 77 -3 73 10 184 8 191 -3 3 -4 45 -8
94 -8 48 0 90 -3 92 -7 7 -17 81 -43 121 -43 23 0 55 -7 71 -15 35 -18 37 -18
30 -1 -3 8 -16 17 -30 20 -13 4 -24 11 -24 16 0 5 -14 24 -30 42 l-31 33 53 7
c61 9 127 2 172 -17 17 -7 49 -17 71 -22 24 -5 41 -14 41 -23 1 -8 2 -20 3
-27 0 -6 14 -18 30 -26 30 -15 30 -15 34 17 2 17 4 -11 5 -61 1 -51 6 -102 12
-113 10 -19 12 -19 27 -5 22 22 29 10 37 -57 l6 -57 -42 15 c-76 28 -327 36
-864 30 -559 -7 -664 -16 -754 -61 -52 -26 -74 -52 -85 -97 -10 -39 -55 -52
-173 -49 -52 1 -53 1 -71 44 -50 115 -148 140 -541 138 -525 -2 -1045 -28
-1144 -57 -27 -8 -52 -14 -56 -14 -3 0 -4 18 -2 40 3 31 8 40 21 38 12 -2 17
7 19 40 2 23 7 42 13 42 5 0 9 9 9 19 0 15 9 20 48 25 26 3 72 2 102 -2 54 -7
100 4 115 29 4 5 17 6 29 3 16 -4 25 0 29 10 3 8 21 18 40 21 19 4 54 20 77
35 24 16 48 27 52 24 5 -3 17 -2 26 2 9 4 55 9 102 10 47 1 102 2 122 3 29 1
36 4 32 16 -8 19 5 19 31 1 11 -7 45 -13 76 -13 31 0 63 -4 70 -9 8 -5 39 -10
69 -11 30 -1 75 -4 99 -8 43 -7 44 -7 38 17 -4 15 -1 32 8 44 8 10 15 27 15
36 0 11 19 24 57 38 31 11 68 29 82 39 14 9 61 32 104 49 l78 33 82 -16 c45
-8 102 -15 127 -15 75 -1 222 9 228 15 11 11 24 4 19 -9 -4 -10 2 -18 16 -22
11 -4 27 -13 35 -20 17 -18 38 -18 126 2 85 19 206 66 255 100 44 30 61 30 62
2z m-2315 -26 c-4 -3 -14 2 -24 12 -16 18 -16 18 6 6 13 -6 21 -14 18 -18z
m2504 4 c0 -3 -4 -8 -10 -11 -5 -3 -10 -1 -10 4 0 6 5 11 10 11 6 0 10 -2 10
-4z m-620 -10 c0 -3 -4 -8 -10 -11 -5 -3 -10 -1 -10 4 0 6 5 11 10 11 6 0 10
-2 10 -4z m-1605 -133 c40 6 55 -7 26 -22 -11 -6 -22 -20 -26 -30 -5 -17 -10
-15 -47 18 -47 42 -100 110 -93 121 3 4 27 -15 55 -43 45 -45 53 -49 85 -44z
m711 82 c-22 -17 -36 -19 -36 -7 0 14 12 22 34 22 21 -1 21 -1 2 -15z m-31
-35 c-3 -5 -13 -10 -21 -10 -8 0 -14 5 -14 10 0 6 9 10 21 10 11 0 17 -4 14
-10z m1625 -10 c0 -5 -5 -10 -11 -10 -5 0 -7 5 -4 10 3 6 8 10 11 10 2 0 4 -4
4 -10z m-2567 -84 c-3 -4 -9 -2 -14 5 -13 22 -11 31 5 17 8 -7 12 -17 9 -22z
m2828 11 c-13 -13 -26 -3 -16 12 3 6 11 8 17 5 6 -4 6 -10 -1 -17z m-2797 -38
c-3 -5 -10 -7 -15 -3 -5 3 -7 10 -3 15 3 5 10 7 15 3 5 -3 7 -10 3 -15z m3516
-10 c0 -6 -4 -7 -10 -4 -5 3 -10 11 -10 16 0 6 5 7 10 4 6 -3 10 -11 10 -16z
m-3345 1 c3 -6 18 -8 33 -4 26 5 26 5 8 -10 -11 -9 -25 -16 -31 -16 -13 0 -35
20 -35 32 0 11 18 10 25 -2z m-435 -85 c0 -14 -4 -25 -10 -25 -5 0 -10 11 -10
25 0 14 5 25 10 25 6 0 10 -11 10 -25z m3740 -11 c0 -14 -4 -22 -10 -19 -5 3
-10 17 -10 31 0 14 4 22 10 19 6 -3 10 -17 10 -31z m-30 -17 c0 -18 -2 -19
-10 -7 -13 20 -13 43 0 35 6 -3 10 -16 10 -28z m65 -76 c3 -5 1 -12 -5 -16 -5
-3 -10 1 -10 9 0 18 6 21 15 7z m-3775 -30 c0 -27 -17 -35 -23 -11 -5 19 0 30
15 30 4 0 8 -9 8 -19z m3820 -16 c0 -8 -4 -15 -10 -15 -5 0 -10 7 -10 15 0 8
5 15 10 15 6 0 10 -7 10 -15z m60 -57 c0 -18 -2 -20 -9 -8 -6 8 -7 18 -5 22 9
14 14 9 14 -14z m-60 -28 c0 -5 -4 -10 -10 -10 -5 0 -10 5 -10 10 0 6 5 10 10
10 6 0 10 -4 10 -10z m-1721 -69 c-45 -50 -59 -60 -59 -40 0 16 89 103 97 96
3 -4 -14 -29 -38 -56z m-441 27 c38 -24 66 -77 77 -148 4 -31 15 -52 33 -67
23 -19 24 -23 9 -23 -30 0 -77 54 -77 88 0 49 -29 114 -63 144 -38 33 -28 36
21 6z m1717 -13 c140 -17 209 -36 280 -76 89 -50 97 -64 96 -166 0 -49 -7
-149 -16 -223 -58 -499 -168 -590 -712 -590 -335 0 -452 29 -563 141 -128 129
-246 400 -281 647 -11 80 -11 98 2 135 18 51 85 100 150 112 179 32 847 45
1044 20z m371 -53 c38 -35 49 -55 58 -106 8 -42 -1 -119 -13 -111 -5 2 -9 32
-10 65 -2 80 -10 97 -70 153 -28 26 -51 50 -51 53 0 9 56 -25 86 -54z m-2326
18 c73 -10 136 -48 160 -95 26 -54 10 -215 -40 -392 -51 -182 -169 -392 -258
-456 -71 -52 -106 -67 -206 -88 -120 -26 -508 -38 -632 -19 -193 28 -308 134
-359 331 -27 102 -63 325 -70 434 -7 93 -6 102 15 127 12 15 48 44 81 63 94
55 237 87 474 105 133 10 744 3 835 -10z m2509 -84 c7 -9 11 -40 9 -78 -3 -60
-4 -63 -28 -63 -23 0 -25 4 -28 54 -5 90 15 126 47 87z m-4031 -150 c-3 -71
-5 -81 -22 -84 -31 -6 -46 26 -46 94 0 53 3 65 22 78 38 27 49 5 46 -88z m91
62 c-5 -18 -9 -58 -10 -88 -1 -50 -2 -52 -10 -25 -10 30 -6 116 6 135 14 22
23 8 14 -22z"/>
<path d="M5375 6070 c-3 -5 -1 -10 4 -10 6 0 11 5 11 10 0 6 -2 10 -4 10 -3 0
-8 -4 -11 -10z"/>
<path d="M5300 6060 c0 -5 9 -10 20 -10 11 0 20 5 20 10 0 6 -9 10 -20 10 -11
0 -20 -4 -20 -10z"/>
<path d="M5246 5941 c-7 -11 32 -46 41 -37 4 3 -3 15 -15 26 -11 11 -23 16
-26 11z"/>
<path d="M4145 5920 c-3 -5 -1 -10 4 -10 6 0 11 5 11 10 0 6 -2 10 -4 10 -3 0
-8 -4 -11 -10z"/>
<path d="M4195 5900 c-3 -5 1 -10 10 -10 9 0 13 5 10 10 -3 6 -8 10 -10 10 -2
0 -7 -4 -10 -10z"/>
<path d="M5675 5541 c-42 -8 -97 -29 -80 -30 6 0 45 5 87 13 48 8 93 11 120 6
23 -5 46 -6 49 -4 7 4 113 -48 137 -68 8 -7 24 -32 34 -56 19 -43 42 -62 56
-47 4 4 1 10 -5 12 -7 3 -13 12 -13 22 0 30 -59 89 -121 120 -48 25 -75 32
-142 35 -45 3 -100 1 -122 -3z"/>
<path d="M5565 5490 c-3 -5 -1 -10 4 -10 6 0 11 5 11 10 0 6 -2 10 -4 10 -3 0
-8 -4 -11 -10z"/>
<path d="M5702 5423 c3 -19 -2 -19 -69 -7 -26 5 -36 2 -56 -20 -16 -17 -31
-24 -41 -20 -10 4 -16 1 -16 -8 0 -7 -10 -18 -22 -23 -22 -10 -36 -45 -58
-148 -7 -34 -6 -37 11 -32 11 4 19 2 19 -4 0 -6 -5 -11 -12 -11 -9 0 -9 -3 0
-12 9 -9 15 -9 24 0 8 8 17 6 36 -9 23 -17 27 -18 34 -4 5 8 16 15 23 15 8 0
15 5 15 10 0 17 26 11 45 -10 10 -11 25 -20 33 -20 12 0 12 -3 2 -15 -11 -13
-7 -15 32 -13 35 2 44 6 40 18 -4 12 -2 12 8 3 8 -7 22 -8 42 -2 17 4 34 6 38
4 12 -8 74 16 88 33 6 9 12 26 12 39 0 17 -6 23 -23 23 -13 0 -28 -5 -35 -12
-8 -8 -15 -8 -26 2 -13 10 -17 9 -22 -4 -3 -9 -15 -16 -26 -16 -15 0 -18 5
-13 21 6 19 4 21 -19 17 -15 -3 -29 -2 -32 3 -2 4 -11 6 -18 3 -18 -7 -46 22
-46 47 0 11 8 22 18 26 9 3 25 13 35 22 14 12 22 13 37 4 13 -9 28 -9 55 -2
20 6 44 8 52 5 9 -4 13 -1 11 6 -3 7 -15 14 -27 16 -16 3 -21 9 -19 25 3 24
-31 47 -70 47 -13 0 -32 5 -43 11 -17 9 -20 7 -17 -8z m-12 -93 c0 -5 -5 -10
-11 -10 -5 0 -7 5 -4 10 3 6 8 10 11 10 2 0 4 -4 4 -10z"/>
<path d="M3643 5494 c-33 -17 -44 -34 -20 -34 6 0 21 7 31 15 11 8 27 15 35
15 14 0 14 -2 1 -11 -11 -8 -7 -9 16 -4 62 12 145 14 170 4 15 -5 29 -7 32 -4
11 11 -11 19 -54 21 -25 1 -48 5 -51 8 -13 13 -129 5 -160 -10z"/>
<path d="M3540 5457 c-70 -44 -126 -113 -109 -134 6 -7 16 -10 21 -7 7 4 6 9
-1 13 -17 11 74 108 114 121 19 6 35 16 35 21 0 15 -23 10 -60 -14z"/>
<path d="M3945 5460 c3 -5 13 -10 21 -10 8 0 14 5 14 10 0 6 -9 10 -21 10 -11
0 -17 -4 -14 -10z"/>
<path d="M4005 5440 c3 -5 8 -10 11 -10 2 0 4 5 4 10 0 6 -5 10 -11 10 -5 0
-7 -4 -4 -10z"/>
<path d="M3755 5380 c-3 -5 -12 -7 -19 -4 -8 3 -17 1 -21 -5 -3 -6 -16 -11
-27 -11 -27 0 -88 -65 -88 -94 0 -13 -7 -29 -15 -36 -8 -7 -15 -24 -15 -39 0
-28 33 -85 43 -75 3 3 18 -3 33 -15 15 -11 34 -21 43 -21 14 1 14 2 -2 11 -15
9 -16 12 -3 31 19 27 101 36 104 10 4 -40 9 -62 14 -68 8 -7 48 5 47 14 -3 21
3 23 20 8 12 -11 25 -15 33 -10 7 4 32 9 56 10 23 1 46 5 50 9 9 9 -27 35 -49
35 -27 0 -82 36 -106 69 -21 27 -21 30 -5 44 10 8 47 17 90 20 59 5 72 3 72
-9 0 -8 7 -14 15 -14 21 0 19 13 -5 35 -11 10 -20 23 -20 30 0 18 -42 53 -73
60 -15 4 -30 11 -33 16 -7 12 -131 12 -139 -1z"/>
<path d="M4042 5120 c-6 -11 -8 -21 -3 -25 5 -3 13 4 16 16 9 28 2 33 -13 9z"/>
</g>
</svg>
